<svg fill="none" xmlns="http://www.w3.org/2000/svg" viewBox="0 0 106 60"><path d="M26.8 44.7c.2.3.3.7.3 1a1.4 1.4 0 0 1-.1.7 1.6 1.6 0 0 1-.4.5 2.6 2.6 0 0 1-1.7.5H22v-6.2h2.8a2.6 2.6 0 0 1 1.6.4c.2.2.4.3.4.5l.2.7c0 .3-.1.7-.4 1l-.8.4c.4 0 .7.3 1 .5Zm-3.4-.9h1.2c.2 0 .5 0 .7-.2a.7.7 0 0 0 .2-.3.7.7 0 0 0 .1-.3.7.7 0 0 0 0-.3.8.8 0 0 0-.3-.3 1.3 1.3 0 0 0-.8-.2h-1.1v1.6Zm2 2.4a.8.8 0 0 0 .3-.3.7.7 0 0 0 0-.4.7.7 0 0 0 0-.3.8.8 0 0 0-.2-.3 1.3 1.3 0 0 0-.9-.2h-1.2v1.7h1.2c.3 0 .6 0 .9-.2Zm7.2 1.2L31 45h-.6v2.4H29v-6.2h2.6a2.7 2.7 0 0 1 1.8.5c.4.4.6.8.6 1.3a1.9 1.9 0 0 1-.4 1.3 2.1 2.1 0 0 1-1.2.6l1.7 2.5h-1.5Zm-2.2-3.3h1.1c.8 0 1.2-.3 1.2-.9a.9.9 0 0 0-.1-.4 1 1 0 0 0-.2-.3 1.3 1.3 0 0 0-.9-.3h-1.1v2Zm9.6 2h-2.7l-.5 1.3h-1.4l2.5-6.1h1.5l2.5 6.1h-1.4l-.5-1.2Zm-.4-.9-1-2.6-1 2.6h2Zm9.7 2.2H48l-3-4.2v4.2h-1.4v-6.2h1.3l3 4.2v-4.2h1.4v6.2Zm7.7-1.5c-.2.5-.7.9-1.2 1.1a4.3 4.3 0 0 1-1.9.4h-2.4v-6.2H54a4.4 4.4 0 0 1 2 .4c.4.2.9.6 1.1 1a3.4 3.4 0 0 1 0 3.3Zm-1.5-.1a2.2 2.2 0 0 0 .6-1.5c0-.6-.2-1-.6-1.5a2.5 2.5 0 0 0-1.7-.5h-1v4h1a2.5 2.5 0 0 0 1.7-.5Zm-14.6-39s17.4 6 17 14.7v14.8s-17.4-6-17-14.8V6.8Zm32.6 26c3.3-2 7-3.3 11-3.7v-4.6a22.4 22.4 0 0 0-11 8.3Z" fill="#AFB1B8"/><path d="M71.5 34.2c2.7-5 7.3-8.8 13-10.7V10.2s-24.8 8.6-24.3 21v21l2.9-1.1v-2c.6-5.8 3.6-11.1 8.4-14.9Z" fill="#AFB1B8"/><path d="M69.1 42c.2-1.4.4-2.9.9-4.3a19.4 19.4 0 0 0-5.3 12.7 74.8 74.8 0 0 0 4.8-2.3c-.4-2-.6-4-.4-6Zm1 0a19 19 0 0 0 .3 5.6c6.8-3.7 14.4-9.5 14.1-16.4v-.6c-4.8.5-9.4 2.4-12.9 5.5a19.3 19.3 0 0 0-1.5 6Z" fill="#AFB1B8"/></svg>