<svg fill="none" xmlns="http://www.w3.org/2000/svg" viewBox="0 0 106 60"><path d="m36.4 49.1.3.2-.6.4a2.4 2.4 0 0 1-.9.2c-.3 0-.5 0-.8-.2a1.8 1.8 0 0 1-.6-.3 1.7 1.7 0 0 1-.4-.6 2 2 0 0 1-.1-.7 1.7 1.7 0 0 1 .5-1.4c.2-.1.4-.3.7-.3l.8-.2a2.3 2.3 0 0 1 .8.1l.6.4-.2.2a.1.1 0 0 1-.1 0h-.2l-.1-.1a1.5 1.5 0 0 0-.5-.1 1.9 1.9 0 0 0-.3 0 1.8 1.8 0 0 0-.6 0 1.4 1.4 0 0 0-.5.3l-.3.5a1.5 1.5 0 0 0 0 .6 1.5 1.5 0 0 0 0 .6l.3.4.5.3H35.6a1.3 1.3 0 0 0 .7-.3.2.2 0 0 1 .1 0Zm6.3-1a1.8 1.8 0 0 1-.1.7 1.6 1.6 0 0 1-.5.6 1.9 1.9 0 0 1-.6.3 2.7 2.7 0 0 1-1.7 0 2 2 0 0 1-.6-.3 1.7 1.7 0 0 1-.4-.6 2 2 0 0 1 0-1.5 1.7 1.7 0 0 1 1-1 2.6 2.6 0 0 1 1.7 0l.6.4a1.7 1.7 0 0 1 .6 1.4Zm-.6 0a1.6 1.6 0 0 0 0-.6 1.2 1.2 0 0 0-.8-.8 2 2 0 0 0-1.2 0 1.3 1.3 0 0 0-.5.3 1.2 1.2 0 0 0-.3.5 1.7 1.7 0 0 0 0 1.1 1.2 1.2 0 0 0 .8.8h1.2l.4-.3c.2-.1.3-.3.3-.5l.1-.5Zm4.9.6v.1l.1-.1a1.2 1.2 0 0 1 0-.2l1.5-2.2a.4.4 0 0 1 .2 0h.4v3.5h-.5v-2.7a1 1 0 0 1 0-.1l-1.4 2.2a.2.2 0 0 1-.2.1.2.2 0 0 1-.2 0L45.3 47v2.8h-.5v-3.5h.4a.4.4 0 0 1 .1 0h.1l1.4 2.2a.8.8 0 0 1 .1.2Zm5.2-.2v1.3h-.5v-3.5h1.9c.2 0 .3.2.5.3a1 1 0 0 1 .2.3l.1.5a1 1 0 0 1-.4.8l-.4.2a2.3 2.3 0 0 1-.7.1h-.7Zm0-.4h1.1a1 1 0 0 0 .3-.2.7.7 0 0 0 .3-.5.6.6 0 0 0 0-.3.7.7 0 0 0-.3-.3 1.2 1.2 0 0 0-.7-.2h-.7v1.5Zm7.4 1.7H59a.2.2 0 0 1-.1 0l-.4-1h-1.9l-.4 1a.2.2 0 0 1-.2 0h-.4l1.6-3.5h.6l1.7 3.5Zm-2.7-1.3h1.5l-.6-1.4-.2-.4v.4l-.7 1.4Zm5-2.2h.1l2.4 2.7v-2.7h.5v3.5h-.3a.3.3 0 0 1-.1 0L62 47v2.7h-.5v-3.5h.4Zm7 2.1v1.4h-.5v-1.4l-1.6-2.1h.5a.2.2 0 0 1 .2 0l1 1.5a2.3 2.3 0 0 1 .1.3l.1-.2.1-.1 1-1.4a.4.4 0 0 1 0-.1.2.2 0 0 1 .1 0h.5L69 48.4Zm-22.2-8.1h.8a20 20 0 0 0 8.9-6.7c2.2-3 3.3-6.4 3.2-10l-4-3.4a18 18 0 0 1-1.2 11.1 21 21 0 0 1-7.7 9Z" fill="#AFB1B8"/><path d="M45.3 40v.1c3.8-2.3 6.6-5.5 8.2-9.2 1.6-3.7 1.8-7.8.7-11.6l-5.7-5A21.5 21.5 0 0 1 45.3 40Zm19.6-12.2a18 18 0 0 1-6.8 10 21.6 21.6 0 0 1-3.3 2c2.8-.8 5.4-2 7.6-3.8s3.8-3.8 4.8-6.1l-2.3-2Z" fill="#AFB1B8"/><path d="m64 27.3-3.4-3c0 3.4-1.1 6.6-3.1 9.4-2 2.8-4.8 5.1-8.2 6.7l2.3-.1c3.1-1.1 5.9-3 8-5.2a17 17 0 0 0 4.3-7.8ZM45.7 12.2l-4-3.5a18.8 18.8 0 0 0-8.8 6 15 15 0 0 0-3.3 9.3c0 3.7 1.4 7.2 4 10C36.3 37 40 39 44 40a21.2 21.2 0 0 0 1.7-27.7ZM73 26.7c0-4.3-2-8.5-5.5-11.5-3.5-3.1-8.3-4.8-13.3-4.9a21.2 21.2 0 0 0-6.8 1.1L72 32.6a14.4 14.4 0 0 0 1.2-5.9Z" fill="#AFB1B8"/></svg>