<svg fill="none" xmlns="http://www.w3.org/2000/svg" viewBox="0 0 106 60"><path d="M24.1 21.1c-2.4 0-4.3 1.7-4.3 3.9 0 2.1 2 3.8 4.3 3.8 2.4 0 4.4-1.7 4.4-3.8 0-2.2-2-3.9-4.4-3.9Zm32-1.2c0-3-1.2-5.8-3.6-8-2.3-2-5.5-3.2-8.9-3.2-3.3 0-6.5 1.2-8.9 3.3-2.3 2-3.6 5-3.6 7.9v16.3s25-2.5 25.1-16.3ZM11 41.5c0 2.1 1 4 2.6 5.5a9.4 9.4 0 0 0 6.1 2.3c2.4 0 4.6-.8 6.2-2.3a7.4 7.4 0 0 0 2.6-5.4V30.2S11 31.9 11 41.5Zm8.7 2c-.4 0-.9 0-1.2-.3a2.1 2.1 0 0 1-.9-.9 1.8 1.8 0 0 1-.1-1.1c0-.4.3-.8.6-1 .3-.4.8-.6 1.2-.6a2.6 2.6 0 0 1 1.3 0c.4.2.8.5 1 .8s.4.7.4 1.1l-.1.8a2 2 0 0 1-.5.7l-.8.4a2.5 2.5 0 0 1-.9.2Zm17.7-1h-1.7v1.7H35V40h2.7v.8h-1.9v1h1.7v.8Zm4.2-.3c0 .4 0 .8-.2 1-.1.4-.3.6-.6.8a1.8 1.8 0 0 1-1 .3l-1-.3a1.7 1.7 0 0 1-.6-.7 2.5 2.5 0 0 1-.2-1.1V42c0-.4 0-.8.2-1.1a1.7 1.7 0 0 1 1.6-1c.4 0 .7 0 1 .2.2.2.5.5.6.8.2.3.2.7.2 1v.3Zm-.8-.2c0-.5-.1-.8-.3-1a.8.8 0 0 0-.7-.4.8.8 0 0 0-.7.4l-.2 1v.2c0 .4 0 .7.2 1 .2.2.4.3.7.3a.8.8 0 0 0 .7-.3c.2-.2.2-.6.3-1V42Zm3.7 1a.4.4 0 0 0-.2-.3l-.6-.3a4.6 4.6 0 0 1-.7-.3c-.5-.2-.8-.6-.8-1l.2-.6c.2-.2.3-.4.6-.5a2.1 2.1 0 0 1 1.6 0l.6.5.2.7h-.9c0-.2 0-.3-.2-.5a.8.8 0 0 0-.5-.1l-.5.1a.4.4 0 0 0-.2.4c0 .1 0 .2.2.3l.6.3c.5.1.9.3 1.1.5.3.3.4.5.4.9s-.2.6-.4.9c-.3.2-.7.3-1.2.3-.3 0-.6 0-.9-.2a1.4 1.4 0 0 1-.6-.5 1.3 1.3 0 0 1-.2-.7h.9c0 .4.3.7.8.7.2 0 .4 0 .5-.2a.4.4 0 0 0 .2-.3Zm4.7-2.3h-1.3v3.5H47v-3.5h-1.3v-.8h3.5v.8Zm3 1.7h-1.6v1.1h2v.7h-3V40h3v.8h-2v1h1.7v.7Zm2.4.2H54v1.6h-.8V40h1.5c.6 0 1 .2 1.2.4.3.2.4.5.4 1 0 .2 0 .5-.2.7a1.3 1.3 0 0 1-.5.4l.9 1.8h-1l-.8-1.6ZM54 42h.8l.5-.1a.6.6 0 0 0 .1-.5l-.1-.5-.6-.1H54v1.2Zm5.4.8v1.5h-1V40h1.8l.8.2.6.5.2.8c0 .4-.2.7-.5 1-.3.2-.7.3-1.2.3h-.7Zm0-.7h.8c.2 0 .4 0 .5-.2l.2-.4a.7.7 0 0 0-.2-.5.7.7 0 0 0-.5-.2h-.8V42Zm5.5.4h-1.7v1.1h2v.7h-2.8V40H65v.8h-2v1h1.7v.7Zm4.1-1.7h-1.3v3.5h-.9v-3.5h-1.3v-.8H69v.8Zm3 1.7h-1.6v1.1h2v.7h-2.9V40h2.9v.8h-2v1H72v.7Zm2.5.2h-.7v1.6h-1V40h1.7c.5 0 .9.2 1.1.4.3.2.4.5.4 1l-.1.7a1.3 1.3 0 0 1-.6.4l1 1.8h-1l-.8-1.6Zm-.7-.7h.7l.5-.1a.6.6 0 0 0 .2-.5c0-.2 0-.4-.2-.5l-.5-.1h-.7v1.2Zm5.1 1.2a.4.4 0 0 0-.1-.4l-.7-.3a4.6 4.6 0 0 1-.7-.3c-.5-.2-.7-.6-.7-1 0-.3 0-.5.2-.6 0-.2.3-.4.5-.5a2.1 2.1 0 0 1 1.7 0l.5.5.2.7h-.9c0-.2 0-.3-.2-.5a.8.8 0 0 0-.5-.1l-.5.1a.4.4 0 0 0-.2.4l.3.3.6.3c.5.1.8.3 1 .5.3.3.4.5.4.9s-.1.6-.4.9c-.3.2-.7.3-1.1.3-.4 0-.7 0-1-.2a1.4 1.4 0 0 1-.6-.5 1.3 1.3 0 0 1-.2-.7h1c0 .4.2.7.8.7.2 0 .3 0 .5-.2a.4.4 0 0 0 .1-.3Z" fill="#2196F3"/></svg>