<svg aria-hidden="true" style="position:absolute;width:0;height:0" xmlns="http://www.w3.org/2000/svg" overflow="hidden"><defs><symbol id="twitter" viewBox="0 0 36 32"><path d="M35.556 4.978c-1.244.533-2.667.889-4.267 1.067a7.15 7.15 0 0 0 3.185-3.861l.015-.05c-1.422.889-2.844 1.422-4.622 1.778a7.288 7.288 0 0 0-12.435 6.627l-.01-.049c-6.044-.356-11.378-3.2-14.933-7.644a7.205 7.205 0 0 0-.994 3.674 7.282 7.282 0 0 0 3.278 6.087l.027.017a7.085 7.085 0 0 1-3.413-.907l.036.018c0 3.556 2.489 6.578 5.867 7.111a6.955 6.955 0 0 1-2.052.302c-.469 0-.927-.045-1.371-.132l.045.007c1.067 3.022 3.556 5.156 6.933 5.156a14.485 14.485 0 0 1-9.032 3.135c-.639 0-1.268-.041-1.885-.121l.073.008c3.2 2.133 7.111 3.022 11.2 3.022h.012c11.389 0 20.622-9.233 20.622-20.622 0-.25-.004-.499-.013-.747l.001.036c1.6-1.067 2.667-2.311 3.733-3.733z"/></symbol><symbol id="antenna-1" viewBox="0 0 32 32"><path d="m30.766 22.08-8.457-8.503.96-4.571c.224.087.484.137.756.137h.023-.001.025a2.149 2.149 0 1 0-2.032-1.448l-.005-.015-4.983.594L8.961.137A.545.545 0 0 0 8.598 0h-.003a.523.523 0 0 0-.366.137L6.72 1.646a.551.551 0 0 0 0 .778l.823.777C6.394 5.268 5.717 7.735 5.717 10.36c0 4.109 1.658 7.831 4.341 10.533l-.001-.001.137.091c-.029.16-.046.344-.046.531v.018-.001 6.217H3.702a2.651 2.651 0 0 0-2.651 2.651v1.051c0 .32.274.549.549.549h24.549c.274 0 .503-.229.503-.549v-1.051a2.651 2.651 0 0 0-2.651-2.651h-6.4v-2.743c1.006.183 2.011.32 3.063.32a14.798 14.798 0 0 0 7.116-1.867l-.076.039.823.869c.091.091.229.137.366.137s.274-.046.366-.137l1.509-1.509a.551.551 0 0 0 0-.778zM23.314 6.217a1.05 1.05 0 1 1 .781 1.828h-.003c-.021.002-.046.002-.072.002a1.05 1.05 0 0 1-.706-1.83l.001-.001zm-1.234 3.52-.594 2.926-1.189-1.143 1.783-1.783zm-.594-.914-1.92 1.92-1.509-1.509 3.429-.411zM24 28.8a1.6 1.6 0 0 1 1.6 1.6v.549H2.149V30.4a1.6 1.6 0 0 1 1.6-1.6H24zm-7.451-2.149v1.097H11.2v-1.097h5.349zM11.2 25.6v-4.069c0-1.28 1.189-2.331 2.651-2.331 1.509 0 2.697 1.051 2.697 2.331V25.6h-5.349zm6.4-1.691v-2.423c0-1.829-1.691-3.383-3.749-3.383h-.028c-1.35 0-2.536.705-3.208 1.767l-.009.016a13.8 13.8 0 0 1-3.827-9.559c0-2.319.57-4.505 1.578-6.426l-.036.076L26.927 22.72c-1.816.94-3.965 1.492-6.242 1.492a13.86 13.86 0 0 1-3.177-.367l.094.019zm11.291-.686-.731-.823L8.594 2.743l-.823-.686.777-.777 7.909 8L29.714 22.4l-.777.777z"/><path fill="var(--color3, #2196f3)" d="M13.897 20.251a1.6 1.6 0 1 0 0 3.2 1.6 1.6 0 1 0 0-3.2zm.366 2.012a.55.55 0 1 1-.412-.915h.003a.55.55 0 0 1 .409.915z"/></symbol><symbol id="astronaut-1" viewBox="0 0 32 32"><path fill="var(--color3, #2196f3)" d="M32 4.526a.55.55 0 0 0-.455-.365h-.003l-1.92-.274-.823-1.737c-.183-.366-.777-.366-.96 0l-.914 1.737-1.829.274a.55.55 0 0 0-.319.914l1.371 1.371-.32 1.874c-.002.015-.002.033-.002.051a.55.55 0 0 0 .783.497l-.003.001 1.691-.914 1.691.914a.55.55 0 0 0 .777-.551v.002l-.32-1.92 1.371-1.371a.546.546 0 0 0 .183-.46v.002zm-2.469 1.325a.655.655 0 0 0-.183.457l.183 1.143-.96-.549a.548.548 0 0 0-.505.001l.003-.001-1.006.549.183-1.143a.55.55 0 0 0-.137-.458l-.823-.777 1.097-.183c.183 0 .32-.137.457-.274l.457-1.006.503.96c.091.137.229.274.411.274l1.097.183-.777.777zM26.149 20.48h-1.097v1.097h1.097v-1.006zm0 2.194h-1.097v1.051h1.097v-1.051zm1.051-1.097h-1.051v1.097H27.2v-1.097zm-2.149 0H24v1.097h1.051v-1.097zm-2.651 4.8h-1.051v1.097H22.4v-1.097zm0 2.149h-1.051v1.051H22.4v-1.051zm1.051-1.052H22.4v1.051h1.051v-1.097zm-2.102 0h-1.097v1.051h1.097v-1.097zM16 24.229h-1.051v1.051H16v-1.051zm0 2.102h-1.051v1.097H16v-1.097zm1.051-1.051H16v1.051h1.051V25.28zm-2.102 0h-1.097v1.051h1.097V25.28zM5.851 6.08H4.8v1.051h1.051V6.08zm0 2.149H4.8V9.28h1.051V8.229zm1.098-1.098H5.852v1.097h1.097V7.131zm-2.149 0H3.749v1.097H4.8V7.131z"/><path fill="var(--color2, #212121)" d="M24.686 14.171a1.789 1.789 0 0 0-1.132-.73l-.011-.002a1.776 1.776 0 0 0-1.375.368l.004-.003-1.234.96-1.92 1.417-1.371-.549c2.403-1.128 4.037-3.528 4.037-6.309a6.949 6.949 0 0 0-6.867-6.948h-.004a6.95 6.95 0 0 0-5.79 10.724l-.016-.027H6.218a.514.514 0 0 0-.186.001l.003-.001h-.091l-3.2 1.646-1.92.914-.046-.002-.048.002h.002a1.783 1.783 0 0 0-.589 2.296l-.005-.01c.214.433.586.76 1.039.911l.013.004a1.78 1.78 0 0 0 1.381-.142l-.009.005 1.371-.731 2.286-1.143H7.59l-5.394 5.349-1.371 1.371a1.638 1.638 0 0 0-.457 1.138v.006c0 .909.737 1.646 1.646 1.646l.048-.001H2.06c.411 0 .823-.137 1.143-.457l1.371-1.326 1.691-1.28.914.914-1.783 1.737-1.28 1.371a1.642 1.642 0 0 0-.457 1.191v-.003c0 .457.137.823.457 1.143.295.283.697.458 1.139.458l.052-.001h-.003c.457 0 .869-.137 1.189-.457l3.429-3.429 1.006-.96 5.166-5.714 3.474.503h.274l.046-.046h.046l3.2-2.149.046-.046h.046l1.28-1.234c.345-.326.559-.786.559-1.297a1.78 1.78 0 0 0-.334-1.04l.004.005zM2.194 17.783a.728.728 0 0 1-.599-.002l.005.002a.733.733 0 0 1-.184-1.233l.001-.001 1.28-.64.32.914.137.457-.96.457zm3.475-1.829-1.554.777L3.841 16l-.183-.549 2.011-1.006v1.554zm15.085-6.628c0 .914-.183 1.783-.594 2.56L16 9.966a1.83 1.83 0 0 0-.771-1.368l-.006-.004 1.463-4.846A5.858 5.858 0 0 1 20.8 9.325zm-11.748 0a5.899 5.899 0 0 1 6.564-5.804l-.027-.002-1.417 4.709a1.83 1.83 0 0 0-1.92 1.827v.002l-.001.046a1.83 1.83 0 0 0 1.829 1.829l.049-.001h-.002l.062.001c.674 0 1.262-.364 1.579-.907l.005-.009 3.84 1.737A5.898 5.898 0 0 1 8.961 9.283v-.004zm5.943.777a.82.82 0 0 1-.823.823.823.823 0 0 1-.777-.822v-.001c0-.457.32-.777.777-.777s.823.366.823.777zM2.514 25.189a.594.594 0 0 1-.868.001.596.596 0 0 1-.001-.913l.001-.001.96-.914.869.823-1.006.96zm3.2 3.657a.595.595 0 0 1-.823-.001.595.595 0 0 1 .001-.823l.914-.914.457.366.457.457-1.006.914zm3.475-3.429-1.737 1.737-.457-.366-.411-.457 1.783-1.783.091-.137v-.183l.046-.091v-.183a.563.563 0 0 0-.135-.136l-.002-.001v-.046l-1.6-1.6h-.091a.517.517 0 0 0-.09-.091l-.001-.001-.046-.002-.048.002h.002a.518.518 0 0 0-.088-.045l-.003-.001-.046-.002-.048.002h.002-.091l-.091.046h-.183L4.208 23.45l-.914-.914 2.377-2.377 4.389 4.297-.914.914zm6.857-7.04H16a.486.486 0 0 0-.14 0h.003a.456.456 0 0 0-.184.092l.001-.001-.091.046v.046l-4.8 5.211-4.343-4.251 2.834-2.834a.549.549 0 0 0-.364-.914H6.674v-1.6h3.109a6.93 6.93 0 0 0 5.024 2.149h.005l1.234-.137.137.091 2.423.914.137.777.183.914-2.971-.457zm4.023.183-.32-1.554 1.463-1.051.366.457.549.777-2.057 1.371zm3.748-2.834-.823.823-.914-1.28.823-.594c.137-.137.32-.183.503-.183.229.046.366.137.457.32a.726.726 0 0 1-.046.915l.001-.001z"/><path fill="var(--color2, #212121)" d="m13.623 18.56-2.194-2.149a.551.551 0 0 0-.778 0L8.502 18.56a.546.546 0 0 0 0 .732l2.149 2.149a.551.551 0 0 0 .778 0l2.149-2.149a.546.546 0 0 0 0-.732zm-2.56 1.737-1.371-1.371 1.371-1.371 1.371 1.371-1.371 1.371zm6.08-15.223-.229 1.051c.046 0 1.737.457 1.737 2.149h1.006c0-2.057-1.646-2.971-2.56-3.2zm2.56 4.252h-1.051v1.051h1.006V9.326z"/></symbol><symbol id="brand" viewBox="0 0 57 32"><path d="M14.293 23.84c.107.16.16.373.16.533a.73.73 0 0 1-.055.378l.002-.005a.854.854 0 0 1-.212.266l-.001.001a1.378 1.378 0 0 1-.911.266h.004-1.547v-3.307h1.493a1.376 1.376 0 0 1 .859.217l-.005-.003c.107.107.213.16.213.267l.107.373c0 .16-.053.373-.213.533l-.427.213c.213 0 .373.16.533.267zm-1.813-.48h.64c.107 0 .267 0 .373-.107a.369.369 0 0 0 .106-.157l.001-.003a.366.366 0 0 0 .053-.158v-.002a.4.4 0 0 0 0-.162v.003a.438.438 0 0 0-.158-.159l-.002-.001a.686.686 0 0 0-.429-.107h.002-.587v.853zm1.067 1.28a.438.438 0 0 0 .159-.158l.001-.002a.364.364 0 0 0 0-.216l.001.003a.4.4 0 0 0 0-.162v.003a.431.431 0 0 0-.106-.16.69.69 0 0 0-.484-.106h.004-.64v.907h.64c.16 0 .32 0 .48-.107zm3.84.64L16.534 24h-.32v1.28h-.747v-3.307h1.387a1.429 1.429 0 0 1 .964.269l-.004-.003c.213.213.32.427.32.693l.002.068c0 .237-.081.455-.217.627l.002-.002a1.117 1.117 0 0 1-.634.319l-.006.001.907 1.333h-.8zm-1.174-1.76h.587c.427 0 .64-.16.64-.48a.477.477 0 0 0-.055-.216l.001.003a.528.528 0 0 0-.107-.16.69.69 0 0 0-.444-.161l-.038.001h.002-.587v1.067zm5.12 1.067h-1.44l-.267.693h-.747l1.333-3.253h.8l1.333 3.253h-.747l-.267-.64zm-.213-.48-.533-1.387-.533 1.387h1.067zm5.173 1.173H25.6L24 23.04v2.24h-.747v-3.307h.693l1.6 2.24v-2.24h.747v3.307zm4.107-.8c-.107.267-.373.48-.64.587a2.257 2.257 0 0 1-.967.214h-.049.002-1.28v-3.307h1.333l.086-.002c.356 0 .693.079.995.221l-.014-.006c.213.107.48.32.587.533.143.254.228.557.228.88s-.084.626-.233.889l.005-.009zm-.8-.053c.197-.208.319-.49.32-.8 0-.32-.107-.533-.32-.8a1.323 1.323 0 0 0-.911-.267h.005-.533v2.133h.533a1.327 1.327 0 0 0 .91-.269l-.003.002zm-7.787-20.8s9.28 3.2 9.067 7.84v7.893s-9.28-3.2-9.067-7.893v-7.84zM39.2 17.493a13.925 13.925 0 0 1 5.867-1.973v-2.453a12.024 12.024 0 0 0-5.842 4.389l-.025.037z"/><path d="M38.133 18.24c1.44-2.667 3.893-4.693 6.933-5.707V5.44s-13.227 4.587-12.96 11.2v11.2l1.547-.587v-1.067c.32-3.093 1.92-5.92 4.48-7.947z"/><path d="M36.853 22.4c.107-.747.213-1.547.48-2.293a10.302 10.302 0 0 0-2.826 6.756v.017a37.044 37.044 0 0 0 2.775-1.331l-.215.105c-.213-1.067-.32-2.133-.213-3.2zm.534 0a10.201 10.201 0 0 0 .172 3.053l-.012-.066c3.627-1.973 7.68-5.067 7.52-8.747v-.32c-2.56.267-5.013 1.28-6.88 2.933a10.036 10.036 0 0 0-.797 3.161l-.003.039z"/></symbol><symbol id="clock-1" viewBox="0 0 32 32"><path d="M31.314 15.314C31.314 6.856 24.458 0 16 0S.686 6.856.686 15.314c.002 6.79 4.423 12.547 10.543 14.552l.108.031h.183c.137 0 .229 0 .366-.091.137-.046.229-.183.274-.366L16 17.234a1.92 1.92 0 1 0-.834-3.652l.012-.005-5.12-5.12a.645.645 0 0 0-1.103.457c0 .179.072.34.189.457l5.12 5.12a1.87 1.87 0 0 0 .545 2.282l.004.003-3.657 11.703c-5.44-2.015-9.247-7.159-9.247-13.192 0-7.751 6.283-14.034 14.034-14.034s14.034 6.283 14.034 14.034c0 1.732-.314 3.392-.888 4.924l.032-.097c-1.346 3.572-4 6.39-7.363 7.918l-.088.036-.457-1.874a.641.641 0 0 0-1.007-.365l.002-.001-3.84 3.429a.639.639 0 0 0 .224 1.095l.005.001 4.937 1.646a.64.64 0 0 0 .823-.736l.001.004-.366-1.829c5.527-2.379 9.326-7.778 9.326-14.065v-.016.001zM16 14.629a.64.64 0 0 1 0 1.28.64.64 0 0 1 0-1.28zm2.103 14.857 2.194-1.966.594 2.834-2.789-.914z"/><path d="M15.36 3.2v1.28a.64.64 0 0 0 1.28 0V3.2a.64.64 0 0 0-1.28 0zM3.886 14.629a.663.663 0 0 0 0 1.326h1.28a.64.64 0 0 0 0-1.28h-1.28zm24.228 1.325a.64.64 0 0 0 0-1.28h-1.28a.64.64 0 0 0 0 1.28h1.28z"/></symbol><symbol id="company" viewBox="0 0 57 32"><path d="m19.413 26.187.16.107-.32.213a1.269 1.269 0 0 1-.478.107h-.002c-.16 0-.267 0-.427-.107a.948.948 0 0 1-.322-.162l.002.002a.91.91 0 0 1-.211-.314l-.002-.006a1.05 1.05 0 0 1-.054-.335l.001-.04v.002a.9.9 0 0 1 .267-.746c.107-.053.213-.16.373-.16l.427-.107a1.213 1.213 0 0 1 .436.055l-.009-.002.32.213-.107.107c-.008.005-.017.007-.027.007s-.019-.003-.027-.007h-.107l-.053-.053a.777.777 0 0 0-.266-.053h-.001a.993.993 0 0 0-.164 0h.004a1.005 1.005 0 0 0-.326.001l.006-.001a.755.755 0 0 0-.267.16l-.16.267a.796.796 0 0 0 .001.325l-.001-.005a.796.796 0 0 0 .001.325l-.001-.005.16.213.267.16h.48a.69.69 0 0 0 .374-.161l-.001.001a.112.112 0 0 1 .054.001h-.001zm3.36-.534a.947.947 0 0 1-.055.38l.002-.007a.857.857 0 0 1-.264.318l-.002.002a1.003 1.003 0 0 1-.313.158l-.007.002a1.445 1.445 0 0 1-.916-.003l.01.003a1.065 1.065 0 0 1-.323-.162l.003.002a.91.91 0 0 1-.211-.314l-.002-.006a1.078 1.078 0 0 1 .002-.807l-.003.007a.914.914 0 0 1 .527-.531l.006-.002a1.394 1.394 0 0 1 .916.003l-.01-.003.32.213a.907.907 0 0 1 .322.693l-.002.057v-.003zm-.32 0a.798.798 0 0 0-.001-.325l.001.005a.643.643 0 0 0-.422-.425l-.005-.001a1.052 1.052 0 0 0-.648.002l.008-.002a.64.64 0 0 0-.426.422l-.001.005a.904.904 0 0 0 .002.593l-.002-.006a.643.643 0 0 0 .422.425l.005.001h.64l.213-.16a.292.292 0 0 0 .16-.267l.053-.267zm2.614.32v.053l.053-.053-.002-.053.002-.056v.002l.8-1.173a.22.22 0 0 1 .108 0h-.002.213v1.867h-.267v-1.44l-.001-.027.001-.028v.001l-.747 1.173a.106.106 0 0 1-.093.054l-.014-.001h.001a.105.105 0 0 1-.107-.001l-.853-1.227v1.493h-.267V24.69h.213a.213.213 0 0 1 .055 0h-.001.053l.747 1.173c.021.031.04.066.052.104l.001.003zm2.773-.106v.693h-.267v-1.867h1.013c.107 0 .16.107.267.16.044.045.08.098.105.157l.001.003.053.267a.533.533 0 0 1-.212.426l-.001.001-.213.107c-.107.034-.23.053-.358.053h-.389zm0-.214h.587a.528.528 0 0 0 .16-.107.379.379 0 0 0 .16-.265v-.002a.337.337 0 0 0-.001-.162v.002a.373.373 0 0 0-.158-.159l-.002-.001a.635.635 0 0 0-.354-.107h-.02.001-.373v.8zm3.947.907h-.32a.112.112 0 0 1-.054-.001h.001l-.213-.533h-1.013l-.213.533a.105.105 0 0 1-.107-.001h-.213l.853-1.867h.32l.907 1.867zm-1.44-.693h.8l-.32-.747-.107-.213v.213l-.373.747zm2.666-1.174h.053l1.28 1.44v-1.44h.267v1.867h-.16l-.027.002-.028-.002h.001l-1.333-1.493v1.44h-.267V24.64h.213zm3.734 1.12v.747h-.267v-.747l-.853-1.12h.267a.105.105 0 0 1 .107.001H36l.533.8c.019.043.037.097.051.151l.002.009.053-.107.053-.053.533-.747-.002-.027.002-.028v.001a.112.112 0 0 1 .054.001h-.001.267l-.747 1.12zm-11.84-4.32h.427a10.735 10.735 0 0 0 4.727-3.546l.019-.027c1.173-1.6 1.76-3.413 1.707-5.333l-2.133-1.813c.131.595.206 1.278.206 1.979a9.567 9.567 0 0 1-.871 4.001l.025-.06a11.28 11.28 0 0 1-4.065 4.774l-.042.026z"/><path d="M24.16 21.333v.053c2.027-1.227 3.52-2.933 4.373-4.907s.96-4.16.373-6.187l-3.04-2.667a11.335 11.335 0 0 1 1.53 5.722c0 3.105-1.234 5.922-3.239 7.987l.003-.003zm10.453-6.506a9.644 9.644 0 0 1-3.6 5.315l-.026.019c-.509.379-1.086.734-1.693 1.037l-.067.03c1.493-.427 2.88-1.067 4.053-2.027s2.027-2.027 2.56-3.253l-1.227-1.067z"/><path d="m34.133 14.56-1.813-1.6c0 1.813-.587 3.52-1.653 5.013s-2.56 2.72-4.373 3.573l1.227-.053a11.184 11.184 0 0 0 4.267-2.773 9.049 9.049 0 0 0 2.28-4.098l.013-.062zm-9.76-8.053L22.24 4.64a10.067 10.067 0 0 0-4.679 3.183l-.014.017a7.95 7.95 0 0 0-1.76 4.957v.003c0 1.973.747 3.84 2.133 5.333 1.44 1.6 3.413 2.667 5.547 3.2a11.268 11.268 0 0 0 3.228-7.91 11.26 11.26 0 0 0-2.341-6.89l.02.027zm14.56 7.733c0-2.293-1.067-4.533-2.933-6.133-1.867-1.653-4.427-2.56-7.093-2.613h-.032c-1.286 0-2.522.215-3.674.61l.08-.024 13.12 11.307c.405-.904.64-1.96.64-3.07v-.081.004z"/></symbol><symbol id="diagram-1" viewBox="0 0 32 32"><path fill="var(--color3, #2196f3)" d="M14.903 14.949H16v4.8h-1.097v-4.8zm4.297 2.148h1.051v2.651H19.2v-2.651zm-8.549 1.6h1.097v1.051h-1.097v-1.006zm-3.2-.548h1.097v1.6H7.451v-1.6z"/><path fill="var(--color2, #212121)" d="M1.6 28.297h25.6a1.6 1.6 0 0 0 1.6-1.6v-2.149a1.6 1.6 0 0 0-1.6-1.6h-.549V9.691l3.017-2.88a1.6 1.6 0 1 0-.727-.767l-.004-.01-2.286 2.149V6.949a1.6 1.6 0 0 0-1.6-1.6H3.748a1.6 1.6 0 0 0-1.6 1.6v16h-.549a1.6 1.6 0 0 0-1.6 1.6v2.149a1.6 1.6 0 0 0 1.6 1.6zM30.4 4.846a.55.55 0 1 1-.004 1.051l.004.001a.55.55 0 0 1-.004-1.051l.004-.001zM3.2 6.949c0-.274.229-.503.549-.503h21.303c.274 0 .549.229.549.503v2.286l-1.097 1.006V8.047c0-.32-.229-.549-.503-.549h-19.2a.557.557 0 0 0-.549.549V21.35c0 .32.274.549.549.549h19.2c.274 0 .503-.229.503-.549v-9.646l1.097-1.006v12.251h-22.4v-16zM8 13.897h-.022a1.6 1.6 0 1 0 1.12 2.743l1.829.914a.556.556 0 0 0 .686-.091l3.931-4.434 3.84 2.88a.55.55 0 0 0 .686 0l3.383-3.2v8.137H5.35V8.549h18.103v2.697l-3.749 3.566-3.931-2.926a.547.547 0 0 0-.731.046l-3.977 4.526-1.463-.777v-.138a1.6 1.6 0 0 0-1.552-1.599h-.002zm.549 1.6a.55.55 0 0 1-1.098 0 .55.55 0 0 1 1.098 0zm3.2 8.549h5.303v.503c0 .32-.229.549-.549.549h-4.251a.549.549 0 0 1-.503-.547v-.505zm-10.698.503c0-.274.274-.503.549-.503h9.051v.503a1.6 1.6 0 0 0 1.6 1.6h4.251a1.6 1.6 0 0 0 1.6-1.6v-.503h9.097c.274 0 .503.229.503.503v2.149c0 .274-.229.549-.503.549h-25.6a.55.55 0 0 1-.549-.549v-2.149z"/></symbol><symbol id="envelope" viewBox="0 0 43 32"><path d="M38.667 0H4C1.867 0 0 1.867 0 4v24c0 2.133 1.867 4 4 4h34.667c2.133 0 4-1.867 4-4V4c0-2.133-1.867-4-4-4zm0 2.667h.533L21.333 18.134 3.466 2.667a1.305 1.305 0 0 1 .542.001l-.009-.002h34.667zm0 26.666H4A1.333 1.333 0 0 1 2.667 28V5.6l17.867 15.467a1.326 1.326 0 0 0 1.603-.002l-.003.002L40.001 5.334v22.4c0 .736-.597 1.333-1.333 1.333z"/></symbol><symbol id="facebook-1" viewBox="0 0 32 32"><path d="M21.28 5.28h3.04V.16A36.473 36.473 0 0 0 19.96 0L20-.001c-4.16 0-7.04 2.72-7.04 7.52v4.48H8v5.76h4.8v14.24h5.6v-14.4h4.48l.8-5.6H18.4v-4c0-1.6.48-2.72 2.72-2.72z"/></symbol><symbol id="foster" viewBox="0 0 57 32"><path d="M12.853 11.253c-1.28 0-2.293.907-2.293 2.08 0 1.12 1.067 2.027 2.293 2.027 1.28 0 2.347-.907 2.347-2.027 0-1.173-1.067-2.08-2.347-2.08zm17.067-.64c0-1.6-.64-3.093-1.92-4.267-1.227-1.067-2.933-1.707-4.747-1.707-1.76 0-3.467.64-4.747 1.76a5.679 5.679 0 0 0-1.92 4.213v8.693s13.333-1.333 13.387-8.693zM5.867 22.133c0 1.12.533 2.133 1.387 2.933a4.994 4.994 0 0 0 3.252 1.227h.002c1.28 0 2.453-.427 3.307-1.227a3.94 3.94 0 0 0 1.386-2.874v-6.086s-9.333.907-9.333 6.027zm4.64 1.067c-.213 0-.48 0-.64-.16a1.13 1.13 0 0 1-.477-.474l-.003-.006a.935.935 0 0 1-.052-.593l-.001.006c0-.213.16-.427.32-.533a.835.835 0 0 1 .64-.32 1.384 1.384 0 0 1 .703.002l-.01-.002c.213.107.427.267.533.427s.213.373.213.587l-.053.427a1.072 1.072 0 0 1-.266.372l-.001.001-.427.213a1.308 1.308 0 0 1-.478.107h-.002zm9.44-.533h-.907v.907h-.373v-2.24h1.44v.427h-1.013v.533h.907v.427zm2.24-.16c0 .213 0 .427-.107.533-.053.213-.16.32-.32.427a.953.953 0 0 1-.531.16h-.003l-.533-.16a.912.912 0 0 1-.318-.368l-.002-.006a1.318 1.318 0 0 1-.108-.526c0-.021 0-.043.002-.064v.003-.107c0-.213 0-.427.107-.587a.91.91 0 0 1 .826-.534h.028-.001c.213 0 .373 0 .533.107.107.107.267.267.32.427.107.16.107.373.107.533v.16zm-.427-.107c0-.267-.053-.427-.16-.533a.427.427 0 0 0-.369-.213h-.008a.426.426 0 0 0-.368.211l-.001.002-.107.533v.107c0 .213 0 .373.107.533.107.107.213.16.373.16a.427.427 0 0 0 .373-.159l.001-.001c.107-.107.107-.32.16-.533V22.4zm1.973.533a.213.213 0 0 0-.106-.159l-.001-.001-.32-.16a2.461 2.461 0 0 1-.386-.166l.013.006c-.267-.107-.427-.32-.427-.533l.107-.32c.107-.107.16-.213.32-.267a1.117 1.117 0 0 1 .861.003l-.007-.003.32.267.107.373h-.48c0-.107 0-.16-.107-.267a.418.418 0 0 0-.269-.053h.002l-.267.053a.214.214 0 0 0-.108.186l.002.029v-.001c0 .053 0 .107.107.16l.32.16c.267.053.48.16.587.267.16.16.213.267.213.48s-.107.32-.213.48c-.16.107-.373.16-.64.16-.16 0-.32 0-.48-.107a.75.75 0 0 1-.318-.264l-.002-.003a.688.688 0 0 1-.107-.37v-.004h.48c0 .213.16.373.427.373.107 0 .213 0 .267-.107a.215.215 0 0 0 .107-.159v-.001zm2.507-1.226h-.693v1.867h-.48v-1.867h-.693v-.427h1.867v.427zm1.6.906h-.853v.587h1.067v.373h-1.6v-2.24h1.6v.427h-1.067v.533h.907v.373zm1.28.107h-.32v.853h-.427v-2.24h.8c.32 0 .533.107.64.213.16.107.213.267.213.533 0 .107 0 .267-.107.373a.709.709 0 0 1-.262.212l-.004.002.48.96H29.6l-.427-.853zm-.32-.32h.427l.267-.053a.319.319 0 0 0 .053-.269v.002l-.053-.267-.32-.053h-.373v.64zm2.88.427v.8h-.533v-2.293h.96l.427.107.32.267.107.427c0 .213-.107.373-.267.533-.16.107-.373.16-.64.16h-.373zm0-.374h.427c.107 0 .213 0 .267-.107l.107-.213v-.005a.37.37 0 0 0-.107-.261.372.372 0 0 0-.261-.107h-.432v.64zm2.933.214h-.907v.587h1.067v.373H33.28v-2.293h1.387v.427H33.6v.533h.907v.373zm2.187-.907h-.693v1.867h-.48V21.76h-.693v-.427h1.867v.427zm1.6.907h-.853v.587h1.067v.373h-1.547v-2.293h1.547v.427h-1.067v.533h.853v.373zm1.333.106h-.373v.853h-.533v-2.293h.907c.267 0 .48.107.587.213.16.107.213.267.213.533l-.053.373a.69.69 0 0 1-.315.212l-.005.001.533.96h-.533l-.427-.853zm-.373-.373h.373l.267-.053a.32.32 0 0 0 .108-.24l-.001-.028v.001c0-.107 0-.213-.107-.267l-.267-.053h-.373v.64zm2.72.64a.212.212 0 0 0-.054-.213l-.373-.16a2.461 2.461 0 0 1-.386-.166l.013.006a.555.555 0 0 1-.373-.533c0-.16 0-.267.107-.32 0-.107.16-.213.267-.267a1.104 1.104 0 0 1 .913.003l-.007-.003.267.267.107.373h-.48c0-.107 0-.16-.107-.267a.418.418 0 0 0-.269-.053h.002l-.267.053a.214.214 0 0 0-.108.186l.002.029v-.001l.16.16.32.16c.267.053.427.16.533.267.16.16.213.267.213.48s-.053.32-.213.48c-.16.107-.373.16-.587.16s-.373 0-.533-.107a.75.75 0 0 1-.318-.264l-.002-.003a.688.688 0 0 1-.107-.37v-.004h.533c0 .213.107.373.427.373.107 0 .16 0 .267-.107a.21.21 0 0 0 .054-.142l-.001-.019v.001z"/></symbol><symbol id="instagram-2" viewBox="0 0 32 32"><path d="M32 9.44c0-1.6-.32-2.88-.8-3.84a7.88 7.88 0 0 0-1.762-2.883l.002.003A8.007 8.007 0 0 0 26.614.819L26.56.8C23.418.478 19.77.294 16.08.294S8.742.478 5.146.837L5.6.8a7.876 7.876 0 0 0-2.877 1.917l-.003.003A8 8 0 0 0 .977 5.544L.96 5.6C.48 6.4 0 7.68 0 9.28a109.899 109.899 0 0 0 .858 17.506L.8 26.24a8.026 8.026 0 0 0 1.763 2.883l-.003-.003a8.007 8.007 0 0 0 2.826 1.901l.054.019c.96.32 2.08.64 3.84.64a118.07 118.07 0 0 0 17.659-.69l-.539.05a8.21 8.21 0 0 0 4.781-4.744l.019-.056.64-3.84V9.6zM29.12 22.4c0 1.6-.32 2.4-.64 3.04a5.31 5.31 0 0 1-3.004 3.028l-.036.012c-.48.16-1.28.48-2.88.48a113.622 113.622 0 0 1-16.486-.521l.486.041a4.821 4.821 0 0 1-1.76-1.12 4.97 4.97 0 0 1-1.269-1.886l-.011-.034c0-.48-.48-1.44-.48-2.88a113.622 113.622 0 0 1 .521-16.486l-.041.486c.3-.697.734-1.286 1.274-1.755L4.8 4.8a4.995 4.995 0 0 1 1.728-1.268l.032-.013c.64-.16 1.6-.48 3.2-.48a115.891 115.891 0 0 1 16.168.521l-.488-.041c.8.32 1.44.64 1.92 1.28.48.48.96 1.12 1.12 1.76.32.64.48 1.44.64 3.04a113.784 113.784 0 0 1-.014 13.106l.014-.306z"/><path d="M16 7.84c-4.437.09-8 3.708-8 8.158V16a8.16 8.16 0 0 0 16.32-.002 8.16 8.16 0 0 0-8.16-8.16l-.168.002H16zm0 13.44a5.28 5.28 0 0 1 0-10.56 5.28 5.28 0 0 1 0 10.56zM26.56 7.52a1.92 1.92 0 0 1-3.84 0 1.92 1.92 0 0 1 3.84 0z"/></symbol><symbol id="linkedin-1" viewBox="0 0 32 32"><path d="M32 32V20.32c0-5.76-1.28-10.24-8-10.24-3.2 0-5.28 1.76-6.24 3.52v-3.04H11.2V32h6.56V21.44c0-2.88.48-5.44 4-5.44 3.36 0 3.52 3.2 3.52 5.6V32H32zM.48 10.56H7.2V32H.48V10.56zM3.84 0A3.84 3.84 0 0 0 0 3.84c0 2.08 1.6 3.84 3.84 3.84 2.08 0 3.84-1.6 3.84-3.84A3.84 3.84 0 0 0 3.84 0z"/></symbol><symbol id="smartphone-1" viewBox="0 0 20 32"><path d="M17 0H3C1.4 0 0 1.4 0 3v26c0 1.6 1.4 3 3 3h14c1.6 0 3-1.4 3-3V3c0-1.6-1.4-3-3-3zM3 2h14a1 1 0 0 1 1 1v21H2V3a1 1 0 0 1 1-1zm14 28H3a1 1 0 0 1-1-1v-3h16v3a1 1 0 0 1-1 1z"/><path fill="var(--color4, #757575)" d="M4.8 27.4a.8.8 0 0 1 .004 1.398L4.8 28.8a1 1 0 0 1-1.598.002l-.002-.003a.8.8 0 0 1-.004-1.398l.004-.002a1 1 0 0 1 1.598-.002l.002.003z"/></symbol><symbol id="tag_line" viewBox="0 0 57 32"><path d="M28.48 14.613a1.586 1.586 0 0 1-.319-1.071v.005V12c0-.427.107-.8.32-1.067.213-.213.587-.373 1.067-.373.533 0 .907.107 1.067.32.267.267.373.587.32.907v.373h-.853v-.693a.371.371 0 0 0-.159-.212l-.002-.001a.526.526 0 0 0-.641.001l.001-.001a.425.425 0 0 0-.159.21l-.001.003a1.79 1.79 0 0 0 .001.382l-.001-.008v1.867l.053.533c.057.053.13.091.211.106h.003a.466.466 0 0 0 .213.053h.018c.115 0 .22-.04.303-.108l-.001.001a.368.368 0 0 0 .106-.211v-.749h.907v.373a1.39 1.39 0 0 1-.27.964l.003-.004c-.213.213-.533.32-1.067.32s-.907-.107-1.067-.373zm3.68 0c-.267-.213-.373-.533-.373-1.067v-1.6c0-.427.107-.8.373-1.067.213-.16.533-.32 1.067-.32s.907.16 1.12.373c.213.213.32.533.32 1.067v1.6c0 .427-.107.8-.32 1.067-.213.213-.587.32-1.067.32-.533 0-.907-.107-1.12-.373zm1.493-.373.107-.48v-1.973l.002-.063a.845.845 0 0 0-.111-.421l.002.004a.432.432 0 0 0-.157-.106l-.003-.001a.51.51 0 0 0-.27.001l.004-.001a.51.51 0 0 0-.217 0l.003-.001a.431.431 0 0 0-.16.106c-.107.16-.16.32-.107.48v1.973c0 .16 0 .32.107.533l.16.053a.64.64 0 0 0 .484-.001l-.004.002s.107 0 .16-.107zm2.08-3.573h.96l.693 2.987.747-2.987h.907l.053 4.32h-.64L38.346 12l-.693 2.987h-.533L36.427 12l-.16 2.933h-.693l.107-4.267zm4.427 0h1.493c.853 0 1.28.427 1.28 1.227s-.48 1.173-1.333 1.173h-.533v1.867h-.907v-4.267zm1.28 1.866a.687.687 0 0 0 .534-.161l-.001.001.107-.48c0-.133-.02-.262-.056-.383l.002.009a.317.317 0 0 0-.054-.107l.001.001a.369.369 0 0 0-.157-.106l-.003-.001a.934.934 0 0 0-.376-.053h.003-.373v1.28h.373zm2.773-1.866h.96l1.067 4.32h-.907l-.16-1.013h-.907l-.213 1.013H43.2l1.067-4.267zm.854 2.826-.373-1.813-.32 1.813h.693zm1.92-2.826h.64l1.227 2.453v-2.453h.747v4.267h-.587l-1.227-2.56v2.56h-.853v-4.267zm4.373 2.666-1.013-2.667h.853l.64 1.707.533-1.707h.853l-1.013 2.667v1.6h-.853v-1.6zM29.867 16.8v.267h-.693v1.707h-.373v-1.707h-.747V16.8h1.813zm2.346 1.973h-.267a.105.105 0 0 1-.107-.001l-.213-.533h-1.013l-.213.533a.105.105 0 0 1-.107-.001h-.213l.907-1.973h.32l.907 1.973zm-1.493-.64h.853l-.373-.8a1.303 1.303 0 0 1-.052-.205l-.001-.009v.107l-.053.107-.373.8zm3.04.534h.16c.115-.001.225-.021.328-.056l-.008.002.107-.053v-.48h-.427v-.16h.693v.747a1.374 1.374 0 0 1-.364.158l-.01.002a1.576 1.576 0 0 1-.543-.002l.01.001a1.286 1.286 0 0 1-.434-.001l.008.001a1.07 1.07 0 0 1-.374-.214l.001.001a.95.95 0 0 1-.211-.314l-.002-.006a1.015 1.015 0 0 1-.107-.425v-.001c.006-.156.045-.302.109-.433l-.003.006c0-.107.107-.213.213-.32.107-.053.213-.16.373-.16a1.48 1.48 0 0 1 .754-.106l-.007-.001c.142.036.266.091.378.163l-.005-.003.16.107-.053.107a.105.105 0 0 1-.107-.001h.001l-.053.001-.056-.001h.003a.762.762 0 0 0-.155-.052l-.005-.001a1.17 1.17 0 0 0-.152-.052l-.008-.002c-.032-.003-.069-.004-.107-.004s-.075.002-.112.004h.005a1.086 1.086 0 0 0-.38.001l.007-.001-.267.16a.69.69 0 0 0-.159.262l-.001.005a.903.903 0 0 0 .002.646l-.002-.006c0 .107.107.213.213.267a.746.746 0 0 0 .589.213h-.003zm2.88 0h1.013v.16h-1.28v-1.973h.267v1.76zm2.027.16H38.4v-1.973h.32v1.973zm1.173-1.974.002.027-.002.028v-.001l1.387 1.493-.001-.027.001-.028v.001-1.493h.267v1.973h-.16a.161.161 0 0 1-.107 0h.001l-1.333-1.493v1.493h-.267v-1.973h.16zm3.893 0v.213h-1.067v.693h.853v.213h-.853v.64h1.067v.213h-1.387v-1.973h1.387zM11.307 4.64 25.067 8v11.733l-13.76-3.36V4.64zM10.4 3.573v13.493l15.52 3.733V7.466l-15.467-3.84z"/><path d="M18.72 27.04 3.2 23.2V9.867L18.72 13.6v13.44z"/><path d="m10.667 4.48 13.547 3.307-5.76 5.013L4.907 9.44l5.76-4.96zm-.267-.853L3.2 9.814l15.52 3.84 7.2-6.24-15.467-3.787zm9.173 22.666 6.4-5.493-6.4-1.547v7.04z"/></symbol><symbol id="tagline" viewBox="0 0 57 32"><path d="M26.72 3.2h-1.28l-.027-.001-.028.001h.001a15.048 15.048 0 0 0-5.692 1.426l.092-.039-.267.107v11.84l.533-.213 1.547-.427a17.817 17.817 0 0 1 4.26-.533h.006v1.493h-.533a17.314 17.314 0 0 0-3.481.561l.121-.028a16.78 16.78 0 0 0-4.03 1.644l.083-.044V3.734a15.459 15.459 0 0 1 4.053-1.579l.107-.021c1.164-.305 2.5-.48 3.877-.48H26.292c1.011.049 1.962.183 2.882.394l-.109-.021V3.52a11.515 11.515 0 0 0-1.887-.265l-.033-.002h-.48zm2.667 1.547h1.067a16.774 16.774 0 0 0 4.224-.56l-.117.026c1.5-.386 2.813-.915 4.034-1.591l-.087.044v14.933a15.557 15.557 0 0 1-3.997 1.63l-.11.024a15.59 15.59 0 0 1-3.939.533h-.008a11.995 11.995 0 0 1-3.017-.392l.083.019V4.48c.558.131 1.216.227 1.889.265l.031.001zm7.573.106-.533.16-1.493.48a17.852 17.852 0 0 1-4.386.534h-.099.005-1.387v12.107h.32l1.067.107a14.374 14.374 0 0 0 3.621-.558l-.101.025a14.796 14.796 0 0 0 2.864-.998l-.091.038.213-.107V4.854zM19.04 24.107a.798.798 0 0 0-.533-.213h-.001a.91.91 0 0 0-.38.001l.006-.001a.806.806 0 0 0-.479.528l-.001.006v2.24c-.053.16 0 .32 0 .427l.213.267.32.16h.587a.855.855 0 0 0 .533-.791v-.222h-.533v.16a.496.496 0 0 1 0 .163v-.003a.322.322 0 0 1-.105.106l-.001.001a.368.368 0 0 1-.211.106h-.002a.266.266 0 0 1-.266-.106l-.001-.001a.473.473 0 0 1-.055-.224l.002-.045v.002-1.92l.053-.267a.268.268 0 0 1 .245-.161l.023.001h-.001a.27.27 0 0 1 .213.158l.001.002a.426.426 0 0 1 .107.266v.161h.533v-.213a.947.947 0 0 0-.055-.38l.002.007a.854.854 0 0 0-.212-.266l-.001-.001zm3.2 0a.954.954 0 0 0-.604-.214l-.038.001h.002-.32a.862.862 0 0 0-.478.474l-.002.006-.053.373v1.973l.053.373c0 .107.107.213.213.267.053.107.16.16.267.16l.32.107a.905.905 0 0 0 .587-.267.85.85 0 0 0 .267-.62v-.021.001-1.973a.947.947 0 0 0-.055-.38l.002.007a.854.854 0 0 0-.212-.266l-.001-.001zm-.267 2.613v.005a.373.373 0 0 1-.641.261.372.372 0 0 1-.107-.261v-1.984a.373.373 0 0 1 .641-.261c.066.067.107.16.107.261v1.979zm4.374.853v-3.68h-.533l-.64 1.973-.693-1.973h-.533v3.68h.533v-2.24l.533 1.6h.267l.533-1.6v2.24h.533zm2.986-3.413-.32-.213a1.2 1.2 0 0 0-.381.001l.007-.001h-.8v3.627h.533v-1.44h.267c.16 0 .32 0 .48-.107a.759.759 0 0 0 .265-.263l.002-.003.16-.32a2.343 2.343 0 0 0 0-.436l.001.01v-.533a.787.787 0 0 0-.213-.319l-.001-.001zm-.266 1.067a.465.465 0 0 1-.055.269l.001-.003a.325.325 0 0 1-.158.106l-.002.001a.51.51 0 0 1-.27-.001l.004.001h-.213v-1.227h.267a.519.519 0 0 1 .216.055l-.003-.001a.326.326 0 0 1 .159.158l.001.002v.693zm2.72-1.334h-.427l-.8 3.68h.533l.16-.8h.693l.16.8h.533l-.853-3.68zm-.48 2.4.267-1.333.267 1.333h-.533zm3.893-.16-.8-2.24h-.533v3.68h.533v-2.187l.8 2.187h.533v-3.68H35.2v2.24zm3.2-2.24-.427 1.493-.48-1.493h-.533l.747 2.133v1.547h.533v-1.6l.693-2.08H38.4zm-20.8 4.694h.267v.747h.16v-.747h.267v-.107h-.693v.107zm2.133-.107-.32.853h.16l.053-.213h.373l.053.213h.213l-.373-.853h-.16zm0 .533.053-.373.16.32h-.267zm2.134 0h.16v.107a.314.314 0 0 1-.215.053h.001l-.018.001a.215.215 0 0 1-.142-.054.368.368 0 0 1-.106-.211v-.002c0-.213.107-.32.267-.32a.16.16 0 0 1 .214.151v.01h.16c0-.213-.16-.32-.373-.32a.422.422 0 0 0-.32.107.425.425 0 0 0-.107.376v-.003.018c0 .115.04.22.108.303l-.001-.001a.426.426 0 0 0 .284.108l.038-.002h-.002a.531.531 0 0 0 .373-.16v-.32h-.373v.16zM24 28.48h-.213v.853h.587v-.16h-.373v-.693zm1.76 0h-.16v.853h.16v-.853zm1.76.533-.32-.533h-.16v.853h.16V28.8l.32.533h.16v-.853h-.16v.533zm1.6-.053h.427v-.16h-.427v-.213h.48v-.107h-.64v.853h.64v-.16h-.48v-.213zm3.947-.16h-.32v-.32h-.213v.853h.16v-.373h.32v.373h.16v-.853h-.107v.32zm1.6.16h.427v-.16h-.427v-.213h.48v-.107h-.64v.853h.64v-.16h-.48v-.213zm2.186 0c.16 0 .213-.107.213-.267l.001-.018a.215.215 0 0 0-.054-.142.473.473 0 0 0-.224-.055l-.045.002h.002-.373v.853h.213v-.373a.22.22 0 0 1 .108 0h-.002l.053.107.213.267h.213l-.107-.16a.587.587 0 0 0-.211-.212l-.003-.002zm-.16-.16h-.107v-.213h.107a.402.402 0 0 1 .163 0h-.003a.107.107 0 0 1 0 .214.5.5 0 0 1-.163 0h.003zm1.814.16h.427v-.16h-.427v-.213h.48v-.107h-.64v.853h.587v-.16h-.48v-.213z"/></symbol><symbol id="ya_go" viewBox="0 0 57 32"><path d="M20.267 3.733 24 7.253h-6.933v17.173H35.2v-6.56l3.733 3.52V3.733H20.266zM35.04 17.44 24.427 7.467H35.04v10.027zm-3.307 4.48H19.946V10.4h.8v10.72h10.987v.8zm-9.013 4.8-.427.907-.427-.96h-.373l.64 1.173v.747h.32v-.747l.64-1.173h-.373zm.533 1.92.16-.48h.747l.16.48h.32L24 26.667h-.32l-.747 1.973h.32zm.534-1.493.267.747h-.533l.267-.747zm1.76.693a.426.426 0 0 0-.107.266v.001c0 .16.053.267.213.373.107.107.213.16.427.16.16 0 .373 0 .48-.16l.107.16h.373l-.267-.373c.107-.107.16-.32.16-.533h-.267c0 .107 0 .213-.107.32l-.373-.427.16-.107a.722.722 0 0 0 .159-.158l.001-.002a.426.426 0 0 0 .107-.266v-.001a.377.377 0 0 0-.159-.266l-.001-.001a.475.475 0 0 0-.302-.107h-.019.001c-.015-.002-.033-.002-.05-.002a.528.528 0 0 0-.324.11l.001-.001a.483.483 0 0 0-.16.373l.053.16.16.267c-.16.053-.213.16-.267.213zm.853.427a.526.526 0 0 1-.32.107.323.323 0 0 1-.215-.054l.001.001a.266.266 0 0 1-.107-.213c0-.107.053-.213.16-.267h.053l.427.427zm-.373-.8-.107-.32v-.16a.162.162 0 0 1 .214 0 .22.22 0 0 1 .108 0h-.002l.053.16.001.018a.215.215 0 0 1-.054.142l-.213.16zm3.093 1.013c.16-.107.213-.267.213-.48h-.32c0 .16 0 .213-.107.267-.053.107-.16.107-.32.107h-.013a.375.375 0 0 1-.306-.159l-.001-.001-.107-.48v-.16c0-.213.053-.373.16-.48l.32-.107.267.053.107.32h.32a.684.684 0 0 0-.213-.533l-.533-.107c-.107 0-.267 0-.373.107a.704.704 0 0 0-.265.263l-.002.003a1.045 1.045 0 0 0-.109.469l.002.067v-.003.16c0 .16 0 .32.107.427.053.16.16.267.267.32l.373.107c.267 0 .427-.053.533-.16zm1.973-.267.053-.533v-.053l.001-.054c0-.174-.04-.339-.111-.486l.003.007a.759.759 0 0 0-.263-.265l-.003-.002c-.107-.107-.267-.107-.373-.107-.16 0-.32 0-.427.107a.547.547 0 0 0-.267.32 1.17 1.17 0 0 0-.107.48v.107c0 .16 0 .32.107.48 0 .16.16.267.267.32l.427.107c.16 0 .267 0 .373-.107.16-.053.213-.213.32-.32zm-.373-1.066.107.48v.107c0 .213 0 .373-.107.48l-.32.16a.372.372 0 0 1-.372-.159l-.001-.001-.107-.533v-.053c0-.213 0-.373.107-.533a.371.371 0 0 1 .376-.106l-.003-.001c.107 0 .213 0 .32.16z"/></symbol>><symbol id="icon-Vector" viewBox="0 0 32 32"><path d="M32 3.223l-3.223-3.223-12.777 12.777-12.777-12.777-3.223 3.223 12.777 12.777-12.777 12.777 3.223 3.223 12.777-12.777 12.777 12.777 3.223-3.223-12.777-12.777 12.777-12.777z"></path></symbol><symbol id="icon-icon-send" viewBox="0 0 32 32"><path d="M32 0l-32 18 10.227 3.788 15.773-14.788-11.998 16.186 0.010 0.004-0.012-0.004v8.814l5.735-6.691 7.265 2.691 5-28z"></path></symbol><symbol id="icon-email" viewBox="0 0 43 32"><path d="M37.333 0h-32c-2.2 0-3.98 1.8-3.98 4l-0.020 24c0 2.2 1.8 4 4 4h32c2.2 0 4-1.8 4-4v-24c0-2.2-1.8-4-4-4zM36.533 8.5l-14.14 8.84c-0.64 0.4-1.48 0.4-2.12 0l-14.14-8.84c-0.5-0.32-0.8-0.86-0.8-1.44 0-1.34 1.46-2.14 2.6-1.44l13.4 8.38 13.4-8.38c1.14-0.7 2.6 0.1 2.6 1.44 0 0.58-0.3 1.12-0.8 1.44z"></path></symbol><symbol id="icon-tel" viewBox="0 0 32 32"><path d="M27.419 20.852l-4.201-0.48c-1.009-0.116-2.002 0.232-2.713 0.943l-3.044 3.044c-4.681-2.382-8.519-6.203-10.901-10.901l3.060-3.060c0.711-0.711 1.059-1.704 0.943-2.713l-0.48-4.168c-0.198-1.671-1.604-2.928-3.292-2.928h-2.862c-1.869 0-3.424 1.555-3.308 3.424 0.877 14.126 12.174 25.407 26.284 26.284 1.869 0.116 3.424-1.439 3.424-3.308v-2.861c0.016-1.671-1.241-3.077-2.911-3.275z"></path><symbol id="icon-name" viewBox="0 0 32 32"><path d="M16 16c4.42 0 8-3.58 8-8s-3.58-8-8-8c-4.42 0-8 3.58-8 8s3.58 8 8 8zM16 20c-5.34 0-16 2.68-16 8v2c0 1.1 0.9 2 2 2h28c1.1 0 2-0.9 2-2v-2c0-5.32-10.66-8-16-8z"></path></symbol></symbol><symbol id="icon-icon-check" viewBox="0 0 34 32"><path fill="#2196f3" style="fill: var(--color1, #2196f3)" d="M4.267 0h25.6c2.356 0 4.267 1.91 4.267 4.267v23.467c0 2.356-1.91 4.267-4.267 4.267h-25.6c-2.356 0-4.267-1.91-4.267-4.267v-23.467c0-2.356 1.91-4.267 4.267-4.267z"></path><path fill="#fff" style="fill: var(--color2, #fff); stroke: var(--color2, #fff)" stroke="#fff" stroke-linejoin="miter" stroke-linecap="butt" stroke-miterlimit="4" stroke-width="0.4267" d="M8.442 16.537l-0.147-0.14-2.205 2.088 7.767 7.41 16.318-15.567-2.19-2.089-14.128 13.465-5.416-5.167z"></path></symbol><symbol id="icon-checkmark" viewBox="0 0 32 32"><path <path fill="#fff" style="fill: var(--color2, #fff); stroke: var(--color2, #fff)" stroke="#fff" d="M27 4l-15 15-7-7-5 5 12 12 20-20z"></path></symbol></defs></svg>