<svg fill="none" xmlns="http://www.w3.org/2000/svg" viewBox="0 0 20 20"><g clip-path="url(#a)" fill="#AFB1B8"><path d="M20 5.9c0-1-.2-1.8-.5-2.4a4.9 4.9 0 0 0-1.1-1.8A5 5 0 0 0 16.6.5 68 68 0 0 0 3.5.5a4.9 4.9 0 0 0-1.8 1.2A5 5 0 0 0 .6 3.5C.3 4 0 4.8 0 5.8a68 68 0 0 0 .5 10.6 5 5 0 0 0 1.1 1.8 5 5 0 0 0 1.8 1.2c.6.2 1.3.4 2.4.4a73 73 0 0 0 10.7-.4 5.1 5.1 0 0 0 3-3l.4-2.4V6ZM18.2 14c0 1-.2 1.5-.4 1.9a3.3 3.3 0 0 1-1.9 1.9c-.3.1-.8.3-1.8.3a70.2 70.2 0 0 1-10-.3 3 3 0 0 1-1.1-.7 3.1 3.1 0 0 1-.8-1.2c0-.3-.3-.9-.3-1.8a70.2 70.2 0 0 1 .3-10A3 3 0 0 1 3 3a3.1 3.1 0 0 1 1.1-.8c.4-.1 1-.3 2-.3a71.7 71.7 0 0 1 9.8.3c.5.2.9.4 1.2.8.3.3.6.7.7 1.1.2.4.3.9.4 1.9a70.2 70.2 0 0 1 0 8Z"/><path d="M10 4.9A5.1 5.1 0 0 0 5 10 5.1 5.1 0 1 0 10 4.9Zm0 8.4a3.3 3.3 0 1 1 0-6.6 3.3 3.3 0 0 1 0 6.6Zm6.6-8.6a1.2 1.2 0 1 1-2.4 0 1.2 1.2 0 0 1 2.4 0Z"/></g><defs><clipPath id="a"><path fill="#fff" d="M0 0h20v20H0z"/></clipPath></defs></svg>