<svg fill="none" xmlns="http://www.w3.org/2000/svg" viewBox="0 0 106 60"><path d="M53.4 27.4a3 3 0 0 1-.6-2v-2.9c0-.8.2-1.5.6-2 .4-.4 1.1-.7 2-.7 1 0 1.7.2 2 .6.5.5.7 1.1.6 1.7v.7h-1.6V21.5a.7.7 0 0 0-.3-.4 1 1 0 0 0-.6-.2 1 1 0 0 0-.6.2.8.8 0 0 0-.3.4 3.3 3.3 0 0 0 0 .7v3.5l.1 1a.8.8 0 0 0 .4.2.9.9 0 0 0 .4.1.9.9 0 0 0 .6-.2.7.7 0 0 0 .2-.4V25H58v.7a2.6 2.6 0 0 1-.5 1.8c-.4.4-1 .6-2 .6s-1.7-.2-2-.7Zm6.9 0c-.5-.4-.7-1-.7-2v-3c0-.8.2-1.5.7-2 .4-.3 1-.6 2-.6s1.7.3 2.1.7c.4.4.6 1 .6 2v3c0 .8-.2 1.5-.6 2-.4.4-1.1.6-2 .6-1 0-1.7-.2-2.1-.7Zm2.8-.7.2-.9v-3.7a1.6 1.6 0 0 0-.2-.9.8.8 0 0 0-.3-.2 1 1 0 0 0-.5 0 1 1 0 0 0-.4 0 .8.8 0 0 0-.3.2c-.2.3-.3.6-.2.9v3.7c0 .3 0 .6.2 1l.3.1a1.2 1.2 0 0 0 .9 0s.2 0 .3-.2ZM67 20h1.8l1.3 5.6 1.4-5.6h1.7l.1 8.1h-1.2l-.2-5.6-1.3 5.6h-1l-1.3-5.6L68 28h-1.3l.2-8Zm8.3 0h2.8c1.6 0 2.4.8 2.4 2.3 0 1.5-.9 2.2-2.5 2.2h-1V28h-1.7v-8Zm2.4 3.5a1.3 1.3 0 0 0 1-.3l.2-.9a2.5 2.5 0 0 0-.1-.7.6.6 0 0 0-.1-.2.7.7 0 0 0-.3-.2 1.8 1.8 0 0 0-.7-.1H77v2.4h.7Zm5.2-3.5h1.8l2 8.1H85l-.3-1.9H83l-.4 1.9H81l2-8Zm1.6 5.3-.7-3.4-.6 3.4h1.3Zm3.6-5.3h1.2l2.3 4.6V20H93V28h-1.1l-2.3-4.8V28H88v-8Zm8.2 5-1.9-5H96l1.2 3.2 1-3.2h1.6l-1.9 5V28h-1.6v-3ZM56 31.5v.5h-1.3v3.2H54V32h-1.4v-.5H56Zm4.4 3.7h-.5a.2.2 0 0 1-.2 0l-.4-1h-1.9l-.4 1a.2.2 0 0 1-.2 0h-.4l1.7-3.7h.6l1.7 3.7ZM57.6 34h1.6l-.7-1.5a2.7 2.7 0 0 1-.1-.4v.2l-.1.2-.7 1.5Zm5.7 1h.3a2 2 0 0 0 .6-.1l.2-.1v-.9H63.6v-.3h1.3v1.4a2.6 2.6 0 0 1-.7.3 3 3 0 0 1-1 0 2.6 2.6 0 0 1-.8 0 2 2 0 0 1-.7-.4 1.8 1.8 0 0 1-.4-.6 1.9 1.9 0 0 1-.2-.8 2 2 0 0 1 .2-.8c0-.2.2-.4.4-.6.2-.1.4-.3.7-.3a2.8 2.8 0 0 1 1.4-.2 2.4 2.4 0 0 1 .7.3l.3.2-.1.2a.2.2 0 0 1-.2 0 2.1 2.1 0 0 1-.2 0 1.5 1.5 0 0 0-.3-.1 2.1 2.1 0 0 0-.3-.1 2.6 2.6 0 0 0-.4 0 2 2 0 0 0-.7 0l-.5.3a1.3 1.3 0 0 0-.3.5 1.7 1.7 0 0 0 0 1.2c0 .2.2.4.4.5a1.4 1.4 0 0 0 1.1.4Zm5.4 0h1.9v.3h-2.4v-3.7h.5v3.3Zm3.8.3H72v-3.7h.6v3.7Zm2.2-3.7a.3.3 0 0 1 0 .1l2.6 2.8a.9.9 0 0 1 0-.1v-2.8h.5v3.7h-.3a.3.3 0 0 1-.2 0l-2.5-2.8v2.8h-.5v-3.7h.3Zm7.3 0v.4h-2v1.3h1.6v.4H80v1.2h2v.4h-2.6v-3.7H82ZM21.2 8.7 47 15V37l-25.8-6.3V8.7Zm-1.7-2V32L48.6 39V14l-29-7.2Z" fill="#AFB1B8"/><path d="M35.1 50.7 6 43.5v-25l29.1 7v25.2Z" fill="#AFB1B8"/><path d="m20 8.4 25.4 6.2L34.6 24 9.2 17.7 20 8.4Zm-.5-1.6L6 18.4l29.1 7.2 13.5-11.7-29-7.1Zm17.2 42.5 12-10.3-12-2.9v13.2Z" fill="#AFB1B8"/></svg>