<svg fill="none" xmlns="http://www.w3.org/2000/svg" viewBox="0 0 106 60"><path fill-rule="evenodd" clip-rule="evenodd" d="M50.1 6h-2.4a.6.6 0 0 0-.1 0 28.3 28.3 0 0 0-10.5 2.6l-.5.2V31l1-.4 2.9-.8a34.3 34.3 0 0 1 8-1v2.8h-1a32.4 32.4 0 0 0-6.3 1 31.6 31.6 0 0 0-7.4 3V7A29.7 29.7 0 0 1 41.6 4a29.8 29.8 0 0 1 7.3-.9h.4a30.4 30.4 0 0 1 5.2.7v2.8a22.6 22.6 0 0 0-3.6-.5H50Zm5 2.9h2a31.5 31.5 0 0 0 7.7-1A31.8 31.8 0 0 0 72.2 5v28a29.8 29.8 0 0 1-7.7 3.1 30 30 0 0 1-7.4 1 22.4 22.4 0 0 1-5.5-.7v-28a22.1 22.1 0 0 0 3.6.5Zm14.2.2-1 .3-2.8.9a34.3 34.3 0 0 1-8.4 1h-2.6V34h.6l2 .2a26.9 26.9 0 0 0 6.6-1 27.8 27.8 0 0 0 5.2-1.8l.4-.2V9.1Z" fill="#AFB1B8"/><path d="M35.7 45.2a1.5 1.5 0 0 0-1-.4 1.7 1.7 0 0 0-.7 0 1.5 1.5 0 0 0-.9 1V50c-.1.3 0 .6 0 .8l.4.5.6.3h1.1a1.6 1.6 0 0 0 1-1.5v-.4h-1v.3a.9.9 0 0 1 0 .3.6.6 0 0 1-.2.2.7.7 0 0 1-.4.2.5.5 0 0 1-.5-.2.9.9 0 0 1-.1-.5v-3.6l.1-.5a.5.5 0 0 1 .5-.3.5.5 0 0 1 .4.3.8.8 0 0 1 .2.5v.3h1v-.4a1.8 1.8 0 0 0-.1-.7 1.6 1.6 0 0 0-.4-.5Zm6 0a1.8 1.8 0 0 0-1.2-.4h-.6a1.6 1.6 0 0 0-.9.9l-.1.7v3.7l.1.7c0 .2.2.4.4.5.1.2.3.3.5.3l.6.2a1.7 1.7 0 0 0 1.1-.5 1.6 1.6 0 0 0 .5-1.2v-3.7a1.8 1.8 0 0 0-.1-.7 1.6 1.6 0 0 0-.4-.5Zm-.5 4.9a.7.7 0 0 1-.2.5.7.7 0 0 1-1 0 .7.7 0 0 1-.2-.5v-3.7a.7.7 0 0 1 .2-.5.7.7 0 0 1 1 0 .7.7 0 0 1 .2.5v3.7Zm8.2 1.6v-6.9h-1l-1.2 3.7-1.3-3.7h-1v6.9h1v-4.2l1 3h.5l1-3v4.2h1Zm5.6-6.4-.6-.4a2.2 2.2 0 0 0-.7 0h-1.5v6.8h1V49h.5c.3 0 .6 0 .9-.2a1.4 1.4 0 0 0 .5-.5l.3-.6a4.9 4.9 0 0 0 0-.8v-1a1.5 1.5 0 0 0-.4-.6Zm-.5 2a.9.9 0 0 1-.1.5.6.6 0 0 1-.3.2 1 1 0 0 1-.5 0h-.4v-2.3h.5a1 1 0 0 1 .4.1.6.6 0 0 1 .3.3v1.3Zm5.1-2.5h-.8l-1.5 6.9h1l.3-1.5h1.3l.3 1.5h1l-1.6-6.9Zm-.9 4.5.5-2.5.5 2.5h-1ZM66 49l-1.5-4.2h-1v6.9h1v-4.1l1.5 4.1h1v-6.9h-1V49Zm6-4.2-.8 2.8-.9-2.8h-1l1.4 4v2.9h1v-3l1.3-3.9h-1Zm-39 8.8h.5V55h.3v-1.4h.5v-.2H33v.2Zm4-.2-.6 1.6h.3l.1-.4h.7l.1.4h.4l-.7-1.6H37Zm0 1 .1-.7.3.6h-.5Zm4 0h.3v.2a.6.6 0 0 1-.4.1.4.4 0 0 1-.3-.1.7.7 0 0 1-.2-.4c0-.4.2-.6.5-.6a.3.3 0 0 1 .4.3h.3c0-.4-.3-.6-.7-.6a.8.8 0 0 0-.6.2.8.8 0 0 0-.2.7.9.9 0 0 0 .2.6.8.8 0 0 0 .6.2 1 1 0 0 0 .7-.3v-.6h-.7v.3Zm4-1h-.4V55h1.1v-.3H45v-1.3Zm3.3 0H48V55h.3v-1.6Zm3.3 1-.6-1h-.3V55h.3v-1l.6 1h.3v-1.6h-.3v1Zm3-.1h.8V54h-.8v-.4h.9v-.2h-1.2V55h1.2v-.3h-.9v-.4ZM62 54h-.6v-.6H61V55h.3v-.7h.6v.7h.3v-1.6H62v.6Zm3 .3h.8V54H65v-.4h.9v-.2h-1.2V55h1.2v-.3H65v-.4Zm4.1 0c.3 0 .4-.2.4-.5a.4.4 0 0 0-.1-.3.9.9 0 0 0-.5-.1h-.7V55h.4v-.7a.4.4 0 0 1 .2 0l.1.2.4.5h.4l-.2-.3a1.1 1.1 0 0 0-.4-.4Zm-.3-.3h-.2v-.4h.2a.8.8 0 0 1 .3 0 .2.2 0 0 1 0 .4 1 1 0 0 1-.3 0Zm3.4.3h.8V54h-.8v-.4h.9v-.2h-1.2V55H73v-.3h-.9v-.4Z" fill="#AFB1B8"/></svg>